<svg enable-background="new 0 0 100 100" height="100" viewBox="0 0 100 100" width="100" xmlns="http://www.w3.org/2000/svg"><g fill="#fff"><path d="m77.4 26-24.4 3.6v34.4c0 .6-.4 1-1 1h-4c-.6 0-1-.4-1-1v-33.5l-23.6 3.5c-.2 0-.3 0-.4 0-1.5 0-2.8-1.1-3-2.6-.2-1.6.9-3.2 2.5-3.4l18.6-2.8c1.7-3.1 5-5.3 8.8-5.3 2.8 0 5.2 1.1 7 2.9l19.7-2.8c1.601-.2 3.2.9 3.4 2.5.2 1.7-.9 3.2-2.6 3.5z"/><path d="m41.3 62.9c.7-.9.9-2 .4-3.101l-8-19c-.4-1.099-1.5-1.799-2.7-1.799s-2.3.7-2.8 1.8l-8 19c-.4.9-.3 1.9.2 2.8.2.3 4.1 6.3 10.4 6.3 3.7 0 7.3-2 10.5-6zm-10.3-13.2 4.3 10.3h-8.6z"/><path d="m71.8 34.8c-.5-1.1-1.6-1.8-2.8-1.8s-2.3.7-2.8 1.8l-8 19c-.4.9-.3 1.9.2 2.8.2.3 4.1 6.3 10.4 6.3 3.7 0 7.2-2 10.5-6 .7-.9.9-2 .4-3.101zm-2.8 8.9 4.3 10.3h-8.6z"/><path d="m50 71c-5.6 0-11.3 2-15.3 5.4-.4.4-.7.9-.7 1.5v.1c0 1.1.9 2 2 2h28c1.1 0 2-.9 2-2v-.1c0-.601-.2-1.101-.7-1.5-4-3.4-9.7-5.4-15.3-5.4z"/></g></svg>